<svg width="29" height="29" viewBox="0 0 29 29" fill="none" xmlns="http://www.w3.org/2000/svg">
<path d="M26.7602 3.80038C26.3252 3.4315 25.6419 3.37872 24.9355 3.66234H24.9343C24.1913 3.96046 3.90294 12.6628 3.07702 13.0183C2.9268 13.0705 1.61484 13.56 1.74998 14.6504C1.87062 15.6335 2.92506 16.0407 3.05382 16.0877L8.21176 17.8538C8.55396 18.9929 9.81546 23.1956 10.0944 24.0934C10.2684 24.6531 10.5521 25.3886 11.0491 25.5399C11.4853 25.7081 11.9191 25.5544 12.1998 25.334L15.3533 22.4091L20.444 26.3792L20.5652 26.4517C20.9109 26.6048 21.242 26.6814 21.5581 26.6814C21.8023 26.6814 22.0366 26.6356 22.2605 26.5439C23.0232 26.2307 23.3283 25.504 23.3602 25.4216L27.1627 5.65696C27.3947 4.60136 27.0722 4.06428 26.7602 3.80038ZM12.7607 18.5602L11.0207 23.2002L9.2807 17.4002L22.6207 7.54022L12.7607 18.5602Z" fill="white"/>
</svg>
