<svg width="29" height="29" viewBox="0 0 29 29" fill="none" xmlns="http://www.w3.org/2000/svg">
<path d="M14.5004 2.90039C8.09429 2.90039 2.90039 8.09429 2.90039 14.5004C2.90039 20.9065 8.09429 26.1004 14.5004 26.1004C20.9065 26.1004 26.1004 20.9065 26.1004 14.5004C26.1004 8.09429 20.9065 2.90039 14.5004 2.90039ZM20.6494 18.3352L18.8436 18.3603C18.8436 18.3603 18.4541 18.4367 17.9446 18.0848C17.2689 17.6208 16.6319 16.4134 16.135 16.57C15.6314 16.7305 15.6469 17.817 15.6469 17.817C15.6469 17.817 15.6507 18.0084 15.5357 18.1331C15.411 18.2675 15.1664 18.254 15.1664 18.254H14.3573C14.3573 18.254 12.5729 18.4019 11.0001 16.7624C9.28716 14.975 7.77336 11.4477 7.77336 11.4477C7.77336 11.4477 7.68442 11.2253 7.77916 11.1113C7.88646 10.9856 8.17549 10.9817 8.17549 10.9817L10.1088 10.9721C10.1088 10.9721 10.2906 11.004 10.422 11.1006C10.5293 11.1799 10.5902 11.3288 10.5902 11.3288C10.5902 11.3288 10.9025 12.1205 11.3172 12.8377C12.1253 14.2355 12.5004 14.542 12.7749 14.3921C13.1751 14.1737 13.0552 12.4163 13.0552 12.4163C13.0552 12.4163 13.063 11.7783 12.8542 11.4941C12.6918 11.2727 12.3863 11.207 12.2529 11.1905C12.1437 11.176 12.3215 10.9228 12.5535 10.8087C12.9015 10.6386 13.5163 10.6289 14.2423 10.6357C14.8078 10.6415 14.9712 10.6763 15.1916 10.7304C15.8586 10.8918 15.6324 11.5144 15.6324 13.0079C15.6324 13.4864 15.5463 14.1592 15.8905 14.3805C16.0393 14.4762 16.4018 14.395 17.3057 12.8542C17.7358 12.1234 18.0577 11.265 18.0577 11.265C18.0577 11.265 18.1283 11.1122 18.2375 11.0465C18.3497 10.9788 18.5005 11.0001 18.5005 11.0001L20.5353 10.9875C20.5353 10.9875 21.1462 10.9141 21.2458 11.1915C21.3502 11.4815 21.0177 12.1591 20.1863 13.2679C18.8214 15.0891 18.6696 14.9199 19.8035 15.9736C20.8862 16.9799 21.1095 17.469 21.1472 17.5309C21.5948 18.2762 20.6494 18.3352 20.6494 18.3352Z" fill="#FFF9F9"/>
</svg>
