<svg width="29" height="29" viewBox="0 0 29 29" fill="none" xmlns="http://www.w3.org/2000/svg">
<path d="M26.0776 7.47442C25.7997 6.43526 24.9804 5.61601 23.9413 5.33809C22.0563 4.83301 14.4993 4.83301 14.4993 4.83301C14.4993 4.83301 6.94243 4.83301 5.05743 5.33809C4.01827 5.61601 3.19902 6.43526 2.9211 7.47442C2.41602 9.35942 2.41602 14.4997 2.41602 14.4997C2.41602 14.4997 2.41602 19.6399 2.9211 21.5249C3.19902 22.5641 4.01827 23.3833 5.05743 23.6613C6.94243 24.1663 14.4993 24.1663 14.4993 24.1663C14.4993 24.1663 22.0563 24.1663 23.9413 23.6613C24.9816 23.3833 25.7997 22.5641 26.0776 21.5249C26.5827 19.6399 26.5827 14.4997 26.5827 14.4997C26.5827 14.4997 26.5827 9.35942 26.0776 7.47442ZM12.0827 17.6389V11.3604C12.0827 10.8952 12.5866 10.6052 12.9889 10.8372L18.4264 13.9765C18.8288 14.2085 18.8288 14.7909 18.4264 15.0229L12.9889 18.1621C12.5866 18.3953 12.0827 18.1041 12.0827 17.6389Z" fill="white"/>
</svg>
